<mxfile host="app.diagrams.net" modified="2020-11-02T17:10:27.093Z" agent="5.0 (Macintosh; Intel Mac OS X 10_15_7) AppleWebKit/605.1.15 (KHTML, like Gecko) Version/14.0 Safari/605.1.15" etag="pHlztD96-QL3xRKYOGEL" version="13.8.8" type="github">
  <diagram id="9FkZDd5_ULd7eX7EfcNi" name="Page-1">
    <mxGraphModel dx="925" dy="661" grid="1" gridSize="10" guides="1" tooltips="1" connect="1" arrows="1" fold="1" page="1" pageScale="1" pageWidth="850" pageHeight="1100" math="0" shadow="0">
      <root>
        <mxCell id="0" />
        <mxCell id="1" parent="0" />
        <mxCell id="F7hzD26JAjAvRqU9A06Q-3" value="" style="edgeStyle=orthogonalEdgeStyle;rounded=0;orthogonalLoop=1;jettySize=auto;html=1;fontSize=19;" edge="1" parent="1" source="F7hzD26JAjAvRqU9A06Q-1" target="F7hzD26JAjAvRqU9A06Q-2">
          <mxGeometry relative="1" as="geometry" />
        </mxCell>
        <mxCell id="F7hzD26JAjAvRqU9A06Q-11" value="" style="edgeStyle=orthogonalEdgeStyle;rounded=0;orthogonalLoop=1;jettySize=auto;html=1;fontSize=19;" edge="1" parent="1" source="F7hzD26JAjAvRqU9A06Q-1" target="F7hzD26JAjAvRqU9A06Q-10">
          <mxGeometry relative="1" as="geometry" />
        </mxCell>
        <mxCell id="F7hzD26JAjAvRqU9A06Q-13" value="" style="edgeStyle=orthogonalEdgeStyle;rounded=0;orthogonalLoop=1;jettySize=auto;html=1;fontSize=19;" edge="1" parent="1" source="F7hzD26JAjAvRqU9A06Q-1" target="F7hzD26JAjAvRqU9A06Q-12">
          <mxGeometry relative="1" as="geometry" />
        </mxCell>
        <mxCell id="F7hzD26JAjAvRqU9A06Q-15" value="" style="edgeStyle=orthogonalEdgeStyle;rounded=0;orthogonalLoop=1;jettySize=auto;html=1;fontSize=19;" edge="1" parent="1" source="F7hzD26JAjAvRqU9A06Q-1" target="F7hzD26JAjAvRqU9A06Q-14">
          <mxGeometry relative="1" as="geometry" />
        </mxCell>
        <mxCell id="F7hzD26JAjAvRqU9A06Q-18" value="" style="edgeStyle=orthogonalEdgeStyle;rounded=0;orthogonalLoop=1;jettySize=auto;html=1;fontSize=19;" edge="1" parent="1" source="F7hzD26JAjAvRqU9A06Q-1" target="F7hzD26JAjAvRqU9A06Q-17">
          <mxGeometry relative="1" as="geometry" />
        </mxCell>
        <mxCell id="F7hzD26JAjAvRqU9A06Q-20" value="" style="edgeStyle=orthogonalEdgeStyle;rounded=0;orthogonalLoop=1;jettySize=auto;html=1;fontSize=19;" edge="1" parent="1" source="F7hzD26JAjAvRqU9A06Q-1" target="F7hzD26JAjAvRqU9A06Q-19">
          <mxGeometry relative="1" as="geometry" />
        </mxCell>
        <mxCell id="F7hzD26JAjAvRqU9A06Q-22" value="" style="edgeStyle=orthogonalEdgeStyle;rounded=0;orthogonalLoop=1;jettySize=auto;html=1;fontSize=19;" edge="1" parent="1" source="F7hzD26JAjAvRqU9A06Q-1" target="F7hzD26JAjAvRqU9A06Q-21">
          <mxGeometry relative="1" as="geometry" />
        </mxCell>
        <mxCell id="F7hzD26JAjAvRqU9A06Q-1" value="ROBINSONCRUSOE" style="text;html=1;strokeColor=#6c8ebf;fillColor=#dae8fc;align=center;verticalAlign=middle;whiteSpace=wrap;rounded=0;fontStyle=1;fontSize=19;" vertex="1" parent="1">
          <mxGeometry x="240" y="290" width="290" height="72" as="geometry" />
        </mxCell>
        <mxCell id="F7hzD26JAjAvRqU9A06Q-2" value="Daniel Defoe" style="whiteSpace=wrap;html=1;rounded=0;fontSize=19;fontStyle=1;strokeColor=#6c8ebf;fillColor=#dae8fc;" vertex="1" parent="1">
          <mxGeometry x="230" y="149" width="120" height="60" as="geometry" />
        </mxCell>
        <mxCell id="F7hzD26JAjAvRqU9A06Q-10" value="IDEJA&lt;br&gt;&lt;br&gt;&lt;span style=&quot;font-weight: normal&quot;&gt;Nikoli se ne predaj, saj ti z ustrajnostjo in trudom lahko uspe doseči cilj.&lt;/span&gt;" style="whiteSpace=wrap;html=1;rounded=0;fontSize=19;fontStyle=1;strokeColor=#6c8ebf;fillColor=#dae8fc;" vertex="1" parent="1">
          <mxGeometry x="190" y="448" width="120" height="322" as="geometry" />
        </mxCell>
        <mxCell id="F7hzD26JAjAvRqU9A06Q-12" value="MOTIVI&lt;br&gt;&lt;br&gt;&lt;span style=&quot;font-weight: normal&quot;&gt;Pogum&lt;br&gt;Iznajdljivost&lt;br&gt;Nesreča&lt;br&gt;Neustrašnost&lt;br&gt;&lt;br&gt;&lt;/span&gt;" style="whiteSpace=wrap;html=1;rounded=0;fontSize=19;fontStyle=1;strokeColor=#6c8ebf;fillColor=#dae8fc;" vertex="1" parent="1">
          <mxGeometry x="460" y="448" width="120" height="322" as="geometry" />
        </mxCell>
        <mxCell id="F7hzD26JAjAvRqU9A06Q-14" value="TEMA&lt;br&gt;&lt;br&gt;&lt;span style=&quot;font-weight: normal&quot;&gt;Robinson ima rad potovanja, a se nikoli ne končajo dobro, saj doživi brodolom ali pa ga prodajo za sužnja&lt;/span&gt;" style="whiteSpace=wrap;html=1;rounded=0;fontSize=19;fontStyle=1;strokeColor=#6c8ebf;fillColor=#dae8fc;" vertex="1" parent="1">
          <mxGeometry x="325" y="448" width="120" height="322" as="geometry" />
        </mxCell>
        <mxCell id="F7hzD26JAjAvRqU9A06Q-17" value="ZVRST&lt;br&gt;&lt;br&gt;&lt;span style=&quot;font-weight: normal&quot;&gt;Pustolovski roman&lt;/span&gt;" style="whiteSpace=wrap;html=1;rounded=0;fontSize=19;fontStyle=1;strokeColor=#6c8ebf;fillColor=#dae8fc;" vertex="1" parent="1">
          <mxGeometry x="410" y="90" width="120" height="154" as="geometry" />
        </mxCell>
        <mxCell id="F7hzD26JAjAvRqU9A06Q-19" value="&lt;font style=&quot;font-size: 23px&quot;&gt;OSEBE&lt;/font&gt;&lt;br&gt;&lt;br&gt;&lt;span style=&quot;font-weight: normal ; font-size: 21px&quot;&gt;Robinson&lt;br&gt;&lt;i&gt;&lt;font style=&quot;font-size: 21px&quot;&gt;&lt;font style=&quot;font-size: 17px&quot;&gt;Petek&lt;/font&gt;&lt;br&gt;&lt;/font&gt;&lt;font style=&quot;font-size: 17px&quot;&gt;Petkov&lt;/font&gt;&lt;font style=&quot;font-size: 19px&quot;&gt; &lt;/font&gt;&lt;font&gt;&lt;font style=&quot;font-size: 17px&quot;&gt;oče&lt;/font&gt;&lt;br&gt;&lt;/font&gt;&lt;font style=&quot;font-size: 17px&quot;&gt;Španec&lt;/font&gt;&lt;/i&gt;&lt;/span&gt;" style="whiteSpace=wrap;html=1;rounded=0;fontSize=19;fontStyle=1;strokeColor=#6c8ebf;fillColor=#dae8fc;" vertex="1" parent="1">
          <mxGeometry x="30" y="209" width="120" height="234" as="geometry" />
        </mxCell>
        <mxCell id="F7hzD26JAjAvRqU9A06Q-21" value="KRAJ &amp;nbsp; &amp;nbsp; &amp;nbsp; &amp;nbsp;ČAS&lt;br&gt;&lt;br&gt;&lt;span style=&quot;font-weight: normal&quot;&gt;Otok&lt;/span&gt; &lt;span style=&quot;font-weight: normal&quot;&gt;pogube, 17. stoletje&lt;/span&gt;" style="whiteSpace=wrap;html=1;rounded=0;fontSize=19;fontStyle=1;strokeColor=#6c8ebf;fillColor=#dae8fc;" vertex="1" parent="1">
          <mxGeometry x="580" y="283" width="265" height="86" as="geometry" />
        </mxCell>
      </root>
    </mxGraphModel>
  </diagram>
</mxfile>
